<svg width="20" height="20" viewBox="0 0 20 20" fill="none" xmlns="http://www.w3.org/2000/svg">
<path d="M15.2776 6.31104C15.2776 4.90247 14.7181 3.55158 13.722 2.55557C12.726 1.55955 11.3751 1 9.96657 1C8.55799 1 7.20711 1.55955 6.21109 2.55557C5.21508 3.55158 4.65552 4.90247 4.65552 6.31104C4.65552 12.5073 2 14.2776 2 14.2776H17.9331C17.9331 14.2776 15.2776 12.5073 15.2776 6.31104Z" stroke="black" stroke-width="1.3" stroke-linecap="round" stroke-linejoin="round"/>
<path d="M11.4982 17.8183C11.3426 18.0866 11.1193 18.3093 10.8505 18.4641C10.5817 18.6189 10.277 18.7003 9.9669 18.7003C9.65675 18.7003 9.35205 18.6189 9.08329 18.4641C8.81454 18.3093 8.59117 18.0866 8.43555 17.8183" stroke="black" stroke-width="1.3" stroke-linecap="round" stroke-linejoin="round"/>
</svg>
