<svg width="70.000000" height="70.000000" viewBox="0 0 70 70" fill="none" xmlns="http://www.w3.org/2000/svg" xmlns:xlink="http://www.w3.org/1999/xlink">
	<desc>
			Created with Pixso.
	</desc>
	<defs>
		<clipPath id="clip73_3025">
			<rect id="Frame 1" rx="10.000000" width="70.000000" height="70.000000" fill="white" fill-opacity="0"/>
		</clipPath>
	</defs>
	<rect id="Frame 1" rx="10.000000" width="70.000000" height="70.000000" fill="#FFCC00" fill-opacity="1.000000"/>
	<g clip-path="url(#clip73_3025)">
		<path id="ST" d="M33.84 30.91L31.8 30.91C31.59 29.18 29.99 28.17 27.88 28.17C25.56 28.17 24.02 29.41 24.02 31.08C24.02 32.95 26.1 33.63 27.4 33.97L29.17 34.45C30.98 34.92 34.08 35.99 34.08 39.25C34.08 42.08 31.8 44.3 27.77 44.3C24.02 44.3 21.71 42.36 21.5 39.5L23.68 39.5C23.85 41.47 25.69 42.4 27.77 42.4C30.19 42.4 32.04 41.13 32.04 39.22C32.04 37.49 30.4 36.83 28.56 36.33L26.41 35.71C23.68 34.92 21.98 33.53 21.98 31.17C21.98 28.25 24.6 26.3 27.94 26.3C31.32 26.3 33.75 28.27 33.84 30.91ZM42.09 28.41L36.6 28.41L36.6 26.54L49.69 26.54L49.69 28.41L44.2 28.41L44.2 44L42.09 44L42.09 28.41Z" fill="#000000" fill-opacity="1.000000" fill-rule="evenodd"/>
	</g>
</svg>
